<svg xmlns="http://www.w3.org/2000/svg" width="32" height="32" viewBox="0 0 32 32" fill="none">
  <style>
    .bracket { fill: #1A1A1A; }
    @media (prefers-color-scheme: dark) {
      .bracket { fill: #F0E8D8; }
    }
  </style>
  <!-- Pixel < bracket -->
  <rect x="2" y="12" width="3" height="3" class="bracket"/>
  <rect x="5" y="15" width="3" height="3" class="bracket"/>
  <rect x="2" y="18" width="3" height="3" class="bracket"/>
  <!-- Pixel > bracket -->
  <rect x="27" y="12" width="3" height="3" class="bracket"/>
  <rect x="24" y="15" width="3" height="3" class="bracket"/>
  <rect x="27" y="18" width="3" height="3" class="bracket"/>
  <!-- Pixel 9 (left) -->
  <rect x="10" y="10" width="4" height="2" fill="#FF7E73"/>
  <rect x="9" y="12" width="2" height="4" fill="#FF7E73"/>
  <rect x="14" y="12" width="2" height="4" fill="#FF7E73"/>
  <rect x="10" y="16" width="4" height="2" fill="#FF7E73"/>
  <rect x="14" y="18" width="2" height="3" fill="#FF7E73"/>
  <rect x="10" y="21" width="4" height="2" fill="#FF7E73"/>
  <!-- Pixel 9 (right) -->
  <rect x="18" y="10" width="4" height="2" fill="#FF7E73"/>
  <rect x="17" y="12" width="2" height="4" fill="#FF7E73"/>
  <rect x="22" y="12" width="2" height="4" fill="#FF7E73"/>
  <rect x="18" y="16" width="4" height="2" fill="#FF7E73"/>
  <rect x="22" y="18" width="2" height="3" fill="#FF7E73"/>
  <rect x="18" y="21" width="4" height="2" fill="#FF7E73"/>
  <!-- Underline -->
  <rect x="9" y="25" width="15" height="2" fill="#FF7E73"/>
</svg>
